#N canvas 261 226 1920 1030 12;
#X obj 65 40 netreceive -u -b 3000;
#X obj 72 85 oscparse;
#X obj 72 148 route /dial;
#X obj 71 119 list trim;
#X floatatom 90 203 5 0 0 0 - - - 0;
#X obj 172 336 adc~, f 5;
#X msg 376 339 stop;
#X obj 197 401 writesf~ 2;
#X obj 96 611 readsf~ 2;
#X obj 103 660 dac~ 1 2;
#X msg 96 544 open guide_1.wav \, start;
#X msg 113 514 open guide_2.wav \, start;
#X msg 136 467 open rec.wav \, start;
#X obj 94 243 sel 1 2 9 0 8, f 17;
#X msg 445 321 open rec.wav \, start;
#X text 415 113 1ガイド１再生 2ガイド2再生 9録音開始 0録音停止 8録音再生, f 24;
#X connect 0 0 1 0;
#X connect 1 0 3 0;
#X connect 2 0 4 0;
#X connect 3 0 2 0;
#X connect 4 0 13 0;
#X connect 5 0 7 0;
#X connect 5 1 7 1;
#X connect 6 0 8 0;
#X connect 6 0 7 0;
#X connect 8 0 9 0;
#X connect 8 1 9 1;
#X connect 10 0 8 0;
#X connect 11 0 8 0;
#X connect 12 0 7 0;
#X connect 13 0 10 0;
#X connect 13 1 11 0;
#X connect 13 2 12 0;
#X connect 13 3 6 0;
#X connect 13 4 14 0;
#X connect 14 0 8 0;
